<svg xmlns:dc="http://purl.org/dc/elements/1.1/" xmlns:cc="http://creativecommons.org/ns#" xmlns:rdf="http://www.w3.org/1999/02/22-rdf-syntax-ns#" xmlns:svg="http://www.w3.org/2000/svg" xmlns="http://www.w3.org/2000/svg" xmlns:sodipodi="http://sodipodi.sourceforge.net/DTD/sodipodi-0.dtd" xmlns:inkscape="http://www.inkscape.org/namespaces/inkscape" width="350" height="66" viewBox="0 0 92.604165 17.4625" id="svg1873"><defs id="defs1867"></defs><metadata></metadata><g id="layer1" transform="translate(0,-279.53748)"><g id="g2300" transform="matrix(0.90457019,0,0,0.90457019,-1.4047177,270.11039)" style="fill:#ffffff"><g style="fill:#ffffff" id="g1814" transform="matrix(0.26458318,0,0,-0.26458318,-194.71058,145.85185)"><g style="fill:#ffffff" id="g1394" transform="translate(836.6938,507.5223)"><path d="m 0,0 h -12.614 l 5.95,-8.504 h 0.016 L 0.887,-19.252 9.281,-31.116 H 9.244 l 3.217,-4.601 h 13.901 z" style="fill:#ffffff;fill-opacity:1;fill-rule:nonzero;stroke:none" id="path1396"></path></g><g style="fill:#ffffff" id="g1398" transform="translate(817.2424,507.5223)"><path d="M 0,0 -19.933,-27.007 H -45.488 V -0.18 H -56.09 v -35.537 h 29.728 6.47 6.539 l 3.251,4.601 h -0.013 l 7.126,10.056 H -2.998 L 5.906,-8.504 H 8.754 L 2.803,0 Z" style="fill:#ffffff;fill-opacity:1;fill-rule:nonzero;stroke:none" id="path1400"></path></g><g style="fill:#ffffff" id="g1402" transform="translate(904.0314,492.9985)"><path d="m 0,0 c -0.796,-0.68 -1.959,-1.02 -3.484,-1.02 h -26.89 v 7.465 h 26.89 C -1.959,6.445 -0.796,6.105 0,5.425 0.796,4.745 1.194,3.84 1.194,2.713 1.194,1.584 0.796,0.68 0,0 m 5.723,12.841 c -2.157,1.045 -4.728,1.568 -7.714,1.568 h -38.985 v -35.537 h 10.602 v 12.144 h 16.275 c 0.041,-0.04 13.104,0 13.104,0 2.787,0.133 5.183,0.73 7.191,1.792 2.008,1.062 3.55,2.455 4.629,4.181 1.078,1.725 1.617,3.633 1.617,5.724 0,2.19 -0.58,4.163 -1.741,5.922 -1.162,1.759 -2.821,3.161 -4.978,4.206" style="fill:#ffffff;fill-opacity:1;fill-rule:nonzero;stroke:none" id="path1404"></path></g><g style="fill:#ffffff" id="g1406" transform="translate(931.0613,491.9783)"><path d="m 0,0 v 7.466 h 26.89 c 1.526,0 2.688,-0.341 3.484,-1.021 C 31.171,5.765 31.569,4.86 31.569,3.733 31.569,2.604 31.171,1.7 30.374,1.02 29.578,0.34 28.416,0 26.89,0 Z m 36.571,-6.171 c 2.007,1.061 3.55,2.454 4.629,4.18 1.077,1.725 1.617,3.633 1.617,5.724 0,2.19 -0.581,4.163 -1.742,5.923 -1.162,1.758 -2.821,3.16 -4.977,4.205 -2.158,1.045 -4.728,1.568 -7.715,1.568 H -10.601 V -20.107 H 0 V -7.963 H 14.945 L 31.818,-20.107 H 46.55 L 29.379,-7.963 c 2.787,0.132 5.184,0.729 7.192,1.792" style="fill:#ffffff;fill-opacity:1;fill-rule:nonzero;stroke:none" id="path1408"></path></g><g style="fill:#ffffff" id="g1410" transform="translate(1030.8135,484.9356)"><path d="m 0,0 c -0.846,-1.377 -2.058,-2.456 -3.634,-3.235 -1.576,-0.78 -3.458,-1.17 -5.648,-1.17 h -23.371 c -2.157,0 -4.032,0.39 -5.624,1.17 -1.593,0.779 -2.812,1.858 -3.658,3.235 -0.846,1.377 -1.269,2.944 -1.269,4.703 0,1.792 0.423,3.368 1.269,4.729 0.846,1.36 2.065,2.43 3.658,3.21 1.592,0.779 3.467,1.17 5.624,1.17 h 23.371 c 2.19,0 4.072,-0.391 5.648,-1.17 C -2.058,11.862 -0.846,10.792 0,9.432 0.846,8.071 1.269,6.495 1.269,4.703 1.269,2.944 0.846,1.377 0,0 m 12.169,4.703 c 0,2.555 -0.506,4.928 -1.518,7.118 -1.013,2.19 -2.456,4.106 -4.33,5.748 -1.875,1.643 -4.115,2.92 -6.719,3.833 -2.605,0.912 -5.484,1.368 -8.636,1.368 h -23.868 c -3.152,0 -6.031,-0.456 -8.635,-1.368 -2.605,-0.913 -4.845,-2.19 -6.719,-3.833 -1.875,-1.642 -3.318,-3.558 -4.33,-5.748 -1.013,-2.19 -1.518,-4.563 -1.518,-7.118 0,-2.555 0.505,-4.927 1.518,-7.117 1.012,-2.19 2.455,-4.106 4.33,-5.748 1.874,-1.643 4.114,-2.921 6.719,-3.833 2.604,-0.913 5.483,-1.368 8.635,-1.368 h 23.868 c 3.152,0 6.031,0.455 8.636,1.368 2.604,0.912 4.844,2.19 6.719,3.833 1.874,1.642 3.317,3.558 4.33,5.748 1.012,2.19 1.518,4.562 1.518,7.117" style="fill:#ffffff;fill-opacity:1;fill-rule:nonzero;stroke:none" id="path1412"></path></g><g style="fill:#ffffff" id="g1414" transform="translate(1093.2052,504.3253)"><path d="m 0,0 h 0.986 v 2.495 h 2.416 v 0.81 H -2.421 V 2.495 H 0 Z" style="fill:#ffffff;fill-opacity:1;fill-rule:nonzero;stroke:none" id="path1416"></path></g><g style="fill:#ffffff" id="g1418" transform="translate(1098.1346,506.8434)"><path d="M 0,0 H 0.412 L 1.791,-2.518 H 3.296 L 4.666,0 H 5.078 V -2.518 H 6.063 V 0.787 H 4.12 L 2.773,-1.731 H 2.356 L 1,0.787 H -0.986 V -2.518 H 0 Z" style="fill:#ffffff;fill-opacity:1;fill-rule:nonzero;stroke:none" id="path1420"></path></g><g style="fill:#ffffff" id="g1422" transform="translate(1084.7906,507.5223)"><path d="m 0,0 h -12.614 l 5.95,-8.504 h 0.016 L 0.887,-19.252 9.281,-31.116 H 9.244 l 3.217,-4.601 h 13.901 z" style="fill:#ffffff;fill-opacity:1;fill-rule:nonzero;stroke:none" id="path1424"></path></g><g style="fill:#ffffff" id="g1426" transform="translate(1065.3392,507.5223)"><path d="m 0,0 -26.362,-35.717 h 13.009 l 3.251,4.601 h -0.013 l 7.126,10.056 H -2.998 L 5.906,-8.504 H 8.754 L 2.803,0 Z" style="fill:#ffffff;fill-opacity:1;fill-rule:nonzero;stroke:none" id="path1428"></path></g><g style="fill:#ffffff" id="g1430" transform="translate(804.7712,453.9684)"><path d="m 0,0 -1.186,-1.085 v -9.586 L 0,-11.756 h 8.956 l 1.185,1.085 v 2.22 H 7.795 V -9.586 H 1.186 v 7.417 h 6.609 v -1.136 h 2.346 v 2.22 L 8.956,0 Z" style="fill:#ffffff;fill-opacity:1;fill-rule:nonzero;stroke:none" id="path1432"></path></g><g style="fill:#ffffff" id="g1434" transform="translate(835.0668,447.8888)"><path d="m 0,0 h -5.449 l -1.16,-1.097 V 3.935 H 0 Z M -5.449,6.105 -6.609,5.008 V 6.105 H -8.956 V -5.651 h 2.347 v 3.481 h 1.463 l 5.171,-2.8 v -0.681 h 2.346 v 1.589 l -3.658,1.892 h 2.473 l 1.185,1.085 V 5.02 L 1.186,6.105 Z" style="fill:#ffffff;fill-opacity:1;fill-rule:nonzero;stroke:none" id="path1436"></path></g><g style="fill:#ffffff" id="g1438" transform="translate(848.6371,452.8837)"><path d="m 0,0 v -9.586 l 1.186,-1.085 h 9.788 v 2.17 H 2.371 v 3.178 h 5.046 v 2.17 H 3.128 L 2.371,-3.869 v 2.784 h 8.603 v 2.17 H 1.186 Z" style="fill:#ffffff;fill-opacity:1;fill-rule:nonzero;stroke:none" id="path1440"></path></g><g style="fill:#ffffff" id="g1442" transform="translate(875.1591,446.4256)"><path d="M 0,0 2.058,4.44 H 2.109 L 4.167,0 Z M 0.973,7.543 -4.349,-4.213 h 2.396 l 0.947,2.043 H 5.172 L 6.12,-4.213 H 8.516 L 3.219,7.543 Z" style="fill:#ffffff;fill-opacity:1;fill-rule:nonzero;stroke:none" id="path1444"></path></g><g style="fill:#ffffff" id="g1446" transform="translate(894.8743,451.8242)"><path d="M 0,0 H 4.263 V -9.586 H 6.609 V 0 h 4.264 V 2.169 H 0 Z" style="fill:#ffffff;fill-opacity:1;fill-rule:nonzero;stroke:none" id="path1448"></path></g><g style="fill:#ffffff" id="g1450" transform="translate(916.9459,451.7989)"><path d="M 0,0 H 2.27 V -7.417 H 0 v -2.169 h 6.912 v 2.169 H 4.642 V 0 h 2.27 V 2.169 H 0 Z" style="fill:#ffffff;fill-opacity:1;fill-rule:nonzero;stroke:none" id="path1452"></path></g><g style="fill:#ffffff" id="g1454" transform="translate(941.1745,445.474)"><path d="M 0,0 -3.696,8.52 H -6.092 -6.117 L -1.022,-3.236 H 0.996 L 6.092,8.52 H 3.696 Z" style="fill:#ffffff;fill-opacity:1;fill-rule:nonzero;stroke:none" id="path1456"></path></g><g style="fill:#ffffff" id="g1458" transform="translate(958.4657,452.8837)"><path d="m 0,0 v -9.586 l 1.186,-1.085 h 9.788 v 2.17 H 2.371 v 3.178 h 5.046 v 2.17 H 3.128 L 2.371,-3.869 v 2.784 h 8.603 v 2.17 H 1.186 Z" style="fill:#ffffff;fill-opacity:1;fill-rule:nonzero;stroke:none" id="path1460"></path></g><g style="fill:#ffffff" id="g1462" transform="translate(992.2351,453.9684)"><path d="m 0,0 h -2.346 v -10.671 h -0.025 l 1.185,-1.085 h 9.41 v 2.17 H 0 Z" style="fill:#ffffff;fill-opacity:1;fill-rule:nonzero;stroke:none" id="path1464"></path></g><g style="fill:#ffffff" id="g1466" transform="translate(1015.7442,446.4256)"><path d="M 0,0 2.058,4.44 H 2.109 L 4.167,0 Z M 0.973,7.543 -4.349,-4.213 h 2.396 l 0.947,2.043 H 5.173 L 6.12,-4.213 H 8.516 L 3.219,7.543 Z" style="fill:#ffffff;fill-opacity:1;fill-rule:nonzero;stroke:none" id="path1468"></path></g><g style="fill:#ffffff" id="g1470" transform="translate(1044.2156,451.5214)"><path d="M 0,0 -3.431,-2.169 H -6.635 V 0.303 H -6.609 0 Z m -0.051,-6.509 v -0.63 H -6.66 v 2.8 h 3.179 z M -7.82,2.447 -9.006,1.362 v -9.586 l 1.186,-1.085 h 8.955 l 1.186,1.085 v 2.75 l -3.557,2.22 3.557,2.194 V 1.362 L 1.135,2.447 Z" style="fill:#ffffff;fill-opacity:1;fill-rule:nonzero;stroke:none" id="path1472"></path></g><g style="fill:#ffffff" id="g1474" transform="translate(1058.6711,453.9937)"><path d="M 0,0 -1.186,-1.085 V -4.238 L 7.038,-8.476 V -9.611 H 1.16 v 1.135 h -2.346 v -2.195 L 0,-11.756 h 8.224 l 1.186,1.085 v 3.355 l -8.224,4.213 v 0.934 H 7.063 V -3.305 H 9.41 v 2.22 L 8.224,0 Z" style="fill:#ffffff;fill-opacity:1;fill-rule:nonzero;stroke:none" id="path1476"></path></g></g></g></g></svg>