<svg xmlns:dc="http://purl.org/dc/elements/1.1/" xmlns:cc="http://creativecommons.org/ns#" xmlns:rdf="http://www.w3.org/1999/02/22-rdf-syntax-ns#" xmlns:svg="http://www.w3.org/2000/svg" xmlns="http://www.w3.org/2000/svg" xmlns:sodipodi="http://sodipodi.sourceforge.net/DTD/sodipodi-0.dtd" xmlns:inkscape="http://www.inkscape.org/namespaces/inkscape" width="512" height="512" viewBox="0 0 135.46666 135.46667" id="svg1142"><defs id="defs1136"></defs><metadata></metadata><g id="layer1" transform="translate(0,-161.53332)"><g id="g1178" style="fill:#ffffff" transform="translate(-32.808333,103.11189)"><g id="g1116" transform="matrix(0.35277777,0,0,-0.35277777,-209.45178,268.70552)" style="fill:#ffffff"><g id="g1105" style="fill:#ffffff"><g transform="translate(953.5941,464.1501)" id="g905" style="fill:#ffffff"><path id="path907" style="fill:#ffffff;fill-opacity:1;fill-rule:nonzero;stroke:none" d="m 0,0 h 4.069 v 10.298 h 9.973 V 13.64 H -9.992 V 10.298 H 0 Z"></path></g><g transform="translate(973.9406,474.5434)" id="g909" style="fill:#ffffff"><path id="path911" style="fill:#ffffff;fill-opacity:1;fill-rule:nonzero;stroke:none" d="m 0,0 h 1.7 l 5.693,-10.393 h 6.21 L 19.258,0 h 1.7 v -10.393 h 4.068 V 3.247 H 17.003 L 11.444,-7.145 H 9.724 L 4.127,3.247 h -8.196 v -13.64 H 0 Z"></path></g><g transform="translate(918.8635,477.7904)" id="g913" style="fill:#ffffff"><path id="path915" style="fill:#ffffff;fill-opacity:1;fill-rule:nonzero;stroke:none" d="m 0,0 h -52.064 l 24.559,-35.099 h 0.066 l 78.87,-112.32 h 57.377 z"></path></g><g transform="translate(838.5787,477.7904)" id="g917" style="fill:#ffffff"><path id="path919" style="fill:#ffffff;fill-opacity:1;fill-rule:nonzero;stroke:none" d="m 0,0 -108.807,-147.419 h 53.694 l 79.491,112.32 H 36.131 L 11.571,0 Z"></path></g></g></g></g></g></svg>